<svg width="312" height="47" viewBox="0 0 312 47" fill="none" xmlns="http://www.w3.org/2000/svg">
<path d="M0.849432 16V0.727272H6.18892C7.25284 0.727272 8.13033 0.911221 8.82138 1.27912C9.51243 1.64204 10.027 2.13175 10.3651 2.74822C10.7031 3.35973 10.8722 4.03835 10.8722 4.78409C10.8722 5.44034 10.7553 5.98224 10.5217 6.4098C10.293 6.83736 9.9897 7.17543 9.61186 7.42401C9.23899 7.67259 8.83381 7.85653 8.39631 7.97585V8.125C8.86364 8.15483 9.33345 8.31889 9.80575 8.61719C10.2781 8.91548 10.6733 9.34304 10.9915 9.89986C11.3097 10.4567 11.4688 11.1378 11.4688 11.9432C11.4688 12.7088 11.2947 13.3974 10.9467 14.0089C10.5987 14.6204 10.0494 15.1051 9.29865 15.4631C8.54794 15.821 7.57102 16 6.3679 16H0.849432ZM2.69886 14.3594H6.3679C7.57599 14.3594 8.43359 14.1257 8.9407 13.6584C9.45277 13.1861 9.70881 12.6143 9.70881 11.9432C9.70881 11.4261 9.57706 10.9489 9.31357 10.5114C9.05007 10.0689 8.67472 9.71591 8.1875 9.45241C7.70028 9.18395 7.12358 9.04972 6.45739 9.04972H2.69886V14.3594ZM2.69886 7.43892H6.12926C6.68608 7.43892 7.18821 7.32955 7.63565 7.1108C8.08807 6.89205 8.44602 6.58381 8.70952 6.18608C8.97798 5.78835 9.11222 5.32102 9.11222 4.78409C9.11222 4.11293 8.87855 3.54368 8.41122 3.07635C7.94389 2.60405 7.20313 2.3679 6.18892 2.3679H2.69886V7.43892ZM18.2716 16.2386C17.1679 16.2386 16.2158 15.995 15.4154 15.5078C14.6199 15.0156 14.0059 14.3295 13.5734 13.4496C13.1458 12.5646 12.9321 11.5355 12.9321 10.3622C12.9321 9.18892 13.1458 8.15483 13.5734 7.25994C14.0059 6.36009 14.6075 5.65909 15.3781 5.15696C16.1537 4.64986 17.0585 4.39631 18.0926 4.39631C18.6892 4.39631 19.2783 4.49574 19.86 4.6946C20.4417 4.89347 20.9711 5.21662 21.4484 5.66406C21.9257 6.10653 22.306 6.69318 22.5894 7.42401C22.8728 8.15483 23.0145 9.05469 23.0145 10.1236V10.8693H14.1849V9.34801H21.2247C21.2247 8.7017 21.0954 8.125 20.8369 7.6179C20.5833 7.11079 20.2204 6.71058 19.7481 6.41726C19.2808 6.12393 18.7289 5.97727 18.0926 5.97727C17.3916 5.97727 16.785 6.15128 16.273 6.49929C15.7659 6.84233 15.3756 7.28977 15.1022 7.84162C14.8287 8.39347 14.692 8.98508 14.692 9.61648V10.6307C14.692 11.4957 14.8412 12.229 15.1395 12.8306C15.4427 13.4272 15.8628 13.8821 16.3998 14.1953C16.9367 14.5036 17.5606 14.6577 18.2716 14.6577C18.7339 14.6577 19.1515 14.593 19.5244 14.4638C19.9022 14.3295 20.2279 14.1307 20.5013 13.8672C20.7748 13.5987 20.986 13.2656 21.1352 12.8679L22.8355 13.3452C22.6565 13.9219 22.3557 14.429 21.9331 14.8665C21.5105 15.299 20.9885 15.6371 20.3671 15.8807C19.7456 16.1193 19.0471 16.2386 18.2716 16.2386ZM33.0053 7.1108L31.4243 7.55824C31.3249 7.29474 31.1782 7.03871 30.9843 6.79013C30.7954 6.53658 30.5369 6.32777 30.2088 6.16371C29.8806 5.99964 29.4605 5.91761 28.9485 5.91761C28.2475 5.91761 27.6633 6.07919 27.196 6.40234C26.7336 6.72053 26.5024 7.12571 26.5024 7.6179C26.5024 8.0554 26.6615 8.40092 26.9797 8.65447C27.2979 8.90803 27.7951 9.11932 28.4712 9.28835L30.1715 9.70597C31.1956 9.95455 31.9588 10.3349 32.4609 10.8469C32.963 11.354 33.2141 12.0078 33.2141 12.8082C33.2141 13.4645 33.0252 14.0511 32.6473 14.5682C32.2745 15.0852 31.7525 15.4929 31.0813 15.7912C30.4101 16.0895 29.6296 16.2386 28.7397 16.2386C27.5713 16.2386 26.6044 15.9851 25.8387 15.478C25.0731 14.9709 24.5884 14.2301 24.3846 13.2557L26.055 12.8381C26.2141 13.4545 26.5149 13.9169 26.9574 14.2251C27.4048 14.5334 27.989 14.6875 28.7098 14.6875C29.5301 14.6875 30.1814 14.5135 30.6637 14.1655C31.1509 13.8125 31.3945 13.3899 31.3945 12.8977C31.3945 12.5 31.2553 12.1669 30.9769 11.8984C30.6985 11.625 30.2709 11.4212 29.6942 11.2869L27.7851 10.8395C26.7361 10.5909 25.9655 10.2056 25.4733 9.68359C24.9861 9.1566 24.7425 8.49787 24.7425 7.70739C24.7425 7.06108 24.924 6.48935 25.2869 5.99219C25.6548 5.49503 26.1544 5.10476 26.7858 4.82138C27.4222 4.538 28.1431 4.39631 28.9485 4.39631C30.082 4.39631 30.9719 4.64489 31.6182 5.14204C32.2695 5.6392 32.7319 6.29545 33.0053 7.1108ZM40.0449 4.54545V6.03693H34.1088V4.54545H40.0449ZM35.8389 1.80114H37.5988V12.7188C37.5988 13.2159 37.6709 13.5888 37.8151 13.8374C37.9643 14.081 38.1532 14.245 38.3819 14.3295C38.6155 14.4091 38.8616 14.4489 39.1202 14.4489C39.314 14.4489 39.4731 14.4389 39.5974 14.419C39.7217 14.3942 39.8211 14.3743 39.8957 14.3594L40.2537 15.9403C40.1344 15.9851 39.9678 16.0298 39.754 16.0746C39.5403 16.1243 39.2693 16.1491 38.9412 16.1491C38.444 16.1491 37.9568 16.0423 37.4795 15.8285C37.0072 15.6147 36.6145 15.2891 36.3013 14.8516C35.993 14.4141 35.8389 13.8622 35.8389 13.196V1.80114ZM55.1121 7.1108L53.5312 7.55824C53.4317 7.29474 53.2851 7.03871 53.0912 6.79013C52.9023 6.53658 52.6437 6.32777 52.3156 6.16371C51.9875 5.99964 51.5674 5.91761 51.0553 5.91761C50.3543 5.91761 49.7702 6.07919 49.3028 6.40234C48.8405 6.72053 48.6093 7.12571 48.6093 7.6179C48.6093 8.0554 48.7684 8.40092 49.0866 8.65447C49.4047 8.90803 49.9019 9.11932 50.578 9.28835L52.2783 9.70597C53.3025 9.95455 54.0656 10.3349 54.5677 10.8469C55.0699 11.354 55.3209 12.0078 55.3209 12.8082C55.3209 13.4645 55.132 14.0511 54.7542 14.5682C54.3813 15.0852 53.8593 15.4929 53.1881 15.7912C52.517 16.0895 51.7364 16.2386 50.8465 16.2386C49.6782 16.2386 48.7112 15.9851 47.9456 15.478C47.18 14.9709 46.6952 14.2301 46.4914 13.2557L48.1618 12.8381C48.3209 13.4545 48.6217 13.9169 49.0642 14.2251C49.5116 14.5334 50.0958 14.6875 50.8167 14.6875C51.637 14.6875 52.2883 14.5135 52.7705 14.1655C53.2577 13.8125 53.5013 13.3899 53.5013 12.8977C53.5013 12.5 53.3621 12.1669 53.0837 11.8984C52.8053 11.625 52.3778 11.4212 51.801 11.2869L49.892 10.8395C48.843 10.5909 48.0724 10.2056 47.5802 9.68359C47.093 9.1566 46.8493 8.49787 46.8493 7.70739C46.8493 7.06108 47.0308 6.48935 47.3937 5.99219C47.7616 5.49503 48.2613 5.10476 48.8927 4.82138C49.529 4.538 50.2499 4.39631 51.0553 4.39631C52.1888 4.39631 53.0787 4.64489 53.7251 5.14204C54.3763 5.6392 54.8387 6.29545 55.1121 7.1108ZM61.8236 16.2386C60.7895 16.2386 59.8822 15.9925 59.1016 15.5004C58.3261 15.0082 57.7195 14.3196 57.282 13.4347C56.8495 12.5497 56.6332 11.5156 56.6332 10.3324C56.6332 9.1392 56.8495 8.09766 57.282 7.20774C57.7195 6.31783 58.3261 5.62678 59.1016 5.13459C59.8822 4.6424 60.7895 4.39631 61.8236 4.39631C62.8577 4.39631 63.7625 4.6424 64.5381 5.13459C65.3186 5.62678 65.9251 6.31783 66.3577 7.20774C66.7952 8.09766 67.0139 9.1392 67.0139 10.3324C67.0139 11.5156 66.7952 12.5497 66.3577 13.4347C65.9251 14.3196 65.3186 15.0082 64.5381 15.5004C63.7625 15.9925 62.8577 16.2386 61.8236 16.2386ZM61.8236 14.6577C62.6091 14.6577 63.2554 14.4563 63.7625 14.0536C64.2696 13.6509 64.645 13.1214 64.8886 12.4652C65.1322 11.8089 65.254 11.098 65.254 10.3324C65.254 9.56676 65.1322 8.85334 64.8886 8.19212C64.645 7.53089 64.2696 6.99645 63.7625 6.58878C63.2554 6.18111 62.6091 5.97727 61.8236 5.97727C61.0381 5.97727 60.3918 6.18111 59.8847 6.58878C59.3776 6.99645 59.0022 7.53089 58.7586 8.19212C58.515 8.85334 58.3932 9.56676 58.3932 10.3324C58.3932 11.098 58.515 11.8089 58.7586 12.4652C59.0022 13.1214 59.3776 13.6509 59.8847 14.0536C60.3918 14.4563 61.0381 14.6577 61.8236 14.6577ZM74.0013 4.54545V6.03693H67.8266V4.54545H74.0013ZM69.676 16V2.96449C69.676 2.30824 69.8301 1.76136 70.1384 1.32386C70.4466 0.886363 70.8468 0.558238 71.339 0.339488C71.8312 0.120738 72.3507 0.0113626 72.8976 0.0113626C73.3301 0.0113626 73.6831 0.046164 73.9566 0.115767C74.23 0.185369 74.4338 0.249999 74.5681 0.309658L74.061 1.83097C73.9715 1.80114 73.8472 1.76385 73.6881 1.7191C73.534 1.67436 73.3301 1.65199 73.0766 1.65199C72.4949 1.65199 72.0748 1.79865 71.8163 2.09197C71.5627 2.3853 71.436 2.81534 71.436 3.3821V16H69.676ZM80.6494 4.54545V6.03693H74.7133V4.54545H80.6494ZM76.4434 1.80114H78.2033V12.7188C78.2033 13.2159 78.2754 13.5888 78.4196 13.8374C78.5687 14.081 78.7577 14.245 78.9864 14.3295C79.22 14.4091 79.4661 14.4489 79.7246 14.4489C79.9185 14.4489 80.0776 14.4389 80.2019 14.419C80.3262 14.3942 80.4256 14.3743 80.5002 14.3594L80.8582 15.9403C80.7388 15.9851 80.5723 16.0298 80.3585 16.0746C80.1447 16.1243 79.8738 16.1491 79.5457 16.1491C79.0485 16.1491 78.5613 16.0423 78.084 15.8285C77.6117 15.6147 77.219 15.2891 76.9058 14.8516C76.5975 14.4141 76.4434 13.8622 76.4434 13.196V1.80114ZM85.0919 16L81.6018 4.54545H83.4513L85.9271 13.3153H86.0465L88.4925 4.54545H90.3717L92.7879 13.2855H92.9072L95.3831 4.54545H97.2325L93.7425 16H92.0124L89.5067 7.20028H89.3277L86.822 16H85.0919ZM102.13 16.2685C101.404 16.2685 100.745 16.1317 100.154 15.8583C99.5621 15.5799 99.0923 15.1797 98.7443 14.6577C98.3963 14.1307 98.2223 13.4943 98.2223 12.7486C98.2223 12.0923 98.3516 11.5604 98.6101 11.1527C98.8686 10.7401 99.2141 10.4169 99.6467 10.1832C100.079 9.94957 100.556 9.77557 101.078 9.66122C101.605 9.5419 102.135 9.44744 102.667 9.37784C103.363 9.28835 103.927 9.22124 104.36 9.17649C104.797 9.12678 105.115 9.04474 105.314 8.9304C105.518 8.81605 105.62 8.61719 105.62 8.33381V8.27415C105.62 7.53835 105.419 6.96662 105.016 6.55895C104.618 6.15128 104.014 5.94744 103.204 5.94744C102.364 5.94744 101.705 6.13139 101.228 6.49929C100.75 6.86719 100.415 7.25994 100.221 7.67756L98.5504 7.08097C98.8487 6.38494 99.2464 5.84304 99.7436 5.45526C100.246 5.0625 100.793 4.78906 101.384 4.63494C101.981 4.47585 102.567 4.39631 103.144 4.39631C103.512 4.39631 103.935 4.44105 104.412 4.53054C104.894 4.61506 105.359 4.79155 105.806 5.06001C106.259 5.32848 106.634 5.73366 106.933 6.27557C107.231 6.81747 107.38 7.54332 107.38 8.45312V16H105.62V14.4489H105.531C105.411 14.6974 105.212 14.9634 104.934 15.2468C104.656 15.5302 104.285 15.7713 103.823 15.9702C103.36 16.169 102.796 16.2685 102.13 16.2685ZM102.398 14.6875C103.094 14.6875 103.681 14.5508 104.158 14.2773C104.641 14.0039 105.004 13.6509 105.247 13.2184C105.496 12.7859 105.62 12.331 105.62 11.8537V10.2429C105.545 10.3324 105.381 10.4144 105.128 10.489C104.879 10.5586 104.591 10.6207 104.263 10.6754C103.94 10.7251 103.624 10.7699 103.316 10.8097C103.012 10.8445 102.766 10.8743 102.577 10.8991C102.12 10.9588 101.692 11.0558 101.295 11.19C100.902 11.3192 100.584 11.5156 100.34 11.7791C100.102 12.0376 99.9822 12.3906 99.9822 12.8381C99.9822 13.4496 100.208 13.9119 100.661 14.2251C101.118 14.5334 101.697 14.6875 102.398 14.6875ZM109.792 16V4.54545H111.493V6.27557H111.612C111.821 5.70881 112.198 5.24893 112.745 4.89595C113.292 4.54297 113.909 4.36648 114.595 4.36648C114.724 4.36648 114.886 4.36896 115.08 4.37393C115.273 4.37891 115.42 4.38636 115.52 4.39631V6.18608C115.46 6.17116 115.323 6.14879 115.109 6.11896C114.901 6.08416 114.679 6.06676 114.446 6.06676C113.889 6.06676 113.392 6.18359 112.954 6.41726C112.522 6.64595 112.179 6.96413 111.925 7.3718C111.676 7.7745 111.552 8.23437 111.552 8.75142V16H109.792ZM121.26 16.2386C120.156 16.2386 119.204 15.995 118.403 15.5078C117.608 15.0156 116.994 14.3295 116.561 13.4496C116.134 12.5646 115.92 11.5355 115.92 10.3622C115.92 9.18892 116.134 8.15483 116.561 7.25994C116.994 6.36009 117.596 5.65909 118.366 5.15696C119.142 4.64986 120.047 4.39631 121.081 4.39631C121.677 4.39631 122.266 4.49574 122.848 4.6946C123.43 4.89347 123.959 5.21662 124.436 5.66406C124.914 6.10653 125.294 6.69318 125.577 7.42401C125.861 8.15483 126.003 9.05469 126.003 10.1236V10.8693H117.173V9.34801H124.213C124.213 8.7017 124.084 8.125 123.825 7.6179C123.571 7.11079 123.209 6.71058 122.736 6.41726C122.269 6.12393 121.717 5.97727 121.081 5.97727C120.38 5.97727 119.773 6.15128 119.261 6.49929C118.754 6.84233 118.364 7.28977 118.09 7.84162C117.817 8.39347 117.68 8.98508 117.68 9.61648V10.6307C117.68 11.4957 117.829 12.229 118.128 12.8306C118.431 13.4272 118.851 13.8821 119.388 14.1953C119.925 14.5036 120.549 14.6577 121.26 14.6577C121.722 14.6577 122.14 14.593 122.512 14.4638C122.89 14.3295 123.216 14.1307 123.489 13.8672C123.763 13.5987 123.974 13.2656 124.123 12.8679L125.824 13.3452C125.645 13.9219 125.344 14.429 124.921 14.8665C124.499 15.299 123.977 15.6371 123.355 15.8807C122.734 16.1193 122.035 16.2386 121.26 16.2386ZM132.986 20.2955V4.54545H134.686V6.36506H134.895C135.024 6.16619 135.203 5.91264 135.432 5.6044C135.666 5.29119 135.999 5.01278 136.431 4.76918C136.869 4.5206 137.46 4.39631 138.206 4.39631C139.171 4.39631 140.021 4.63743 140.757 5.11967C141.492 5.60192 142.067 6.28551 142.479 7.17045C142.892 8.0554 143.098 9.09943 143.098 10.3026C143.098 11.5156 142.892 12.5671 142.479 13.457C142.067 14.342 141.495 15.0281 140.764 15.5153C140.033 15.9975 139.191 16.2386 138.236 16.2386C137.5 16.2386 136.911 16.1168 136.469 15.8732C136.026 15.6246 135.686 15.3437 135.447 15.0305C135.208 14.7124 135.024 14.4489 134.895 14.2401H134.746V20.2955H132.986ZM134.716 10.2727C134.716 11.1378 134.843 11.9009 135.096 12.5621C135.35 13.2184 135.72 13.733 136.208 14.1058C136.695 14.4737 137.291 14.6577 137.997 14.6577C138.733 14.6577 139.347 14.4638 139.839 14.076C140.336 13.6832 140.709 13.1562 140.958 12.495C141.211 11.8288 141.338 11.0881 141.338 10.2727C141.338 9.46733 141.214 8.74148 140.965 8.09517C140.722 7.44389 140.351 6.92933 139.854 6.55149C139.362 6.16868 138.743 5.97727 137.997 5.97727C137.281 5.97727 136.68 6.15874 136.193 6.52166C135.705 6.87962 135.338 7.38175 135.089 8.02805C134.84 8.66939 134.716 9.41761 134.716 10.2727ZM146.743 0.727272V16H144.983V0.727272H146.743ZM152.537 16.2685C151.811 16.2685 151.152 16.1317 150.561 15.8583C149.969 15.5799 149.499 15.1797 149.151 14.6577C148.803 14.1307 148.629 13.4943 148.629 12.7486C148.629 12.0923 148.759 11.5604 149.017 11.1527C149.276 10.7401 149.621 10.4169 150.054 10.1832C150.486 9.94957 150.963 9.77557 151.486 9.66122C152.012 9.5419 152.542 9.44744 153.074 9.37784C153.77 9.28835 154.334 9.22124 154.767 9.17649C155.204 9.12678 155.522 9.04474 155.721 8.9304C155.925 8.81605 156.027 8.61719 156.027 8.33381V8.27415C156.027 7.53835 155.826 6.96662 155.423 6.55895C155.025 6.15128 154.421 5.94744 153.611 5.94744C152.771 5.94744 152.112 6.13139 151.635 6.49929C151.157 6.86719 150.822 7.25994 150.628 7.67756L148.957 7.08097C149.256 6.38494 149.653 5.84304 150.151 5.45526C150.653 5.0625 151.2 4.78906 151.791 4.63494C152.388 4.47585 152.974 4.39631 153.551 4.39631C153.919 4.39631 154.342 4.44105 154.819 4.53054C155.301 4.61506 155.766 4.79155 156.213 5.06001C156.666 5.32848 157.041 5.73366 157.34 6.27557C157.638 6.81747 157.787 7.54332 157.787 8.45312V16H156.027V14.4489H155.938C155.818 14.6974 155.619 14.9634 155.341 15.2468C155.063 15.5302 154.692 15.7713 154.23 15.9702C153.767 16.169 153.203 16.2685 152.537 16.2685ZM152.805 14.6875C153.501 14.6875 154.088 14.5508 154.565 14.2773C155.048 14.0039 155.411 13.6509 155.654 13.2184C155.903 12.7859 156.027 12.331 156.027 11.8537V10.2429C155.952 10.3324 155.788 10.4144 155.535 10.489C155.286 10.5586 154.998 10.6207 154.67 10.6754C154.347 10.7251 154.031 10.7699 153.723 10.8097C153.419 10.8445 153.173 10.8743 152.984 10.8991C152.527 10.9588 152.099 11.0558 151.702 11.19C151.309 11.3192 150.991 11.5156 150.747 11.7791C150.509 12.0376 150.389 12.3906 150.389 12.8381C150.389 13.4496 150.615 13.9119 151.068 14.2251C151.525 14.5334 152.104 14.6875 152.805 14.6875ZM165.181 4.54545V6.03693H159.245V4.54545H165.181ZM160.975 1.80114H162.735V12.7188C162.735 13.2159 162.807 13.5888 162.951 13.8374C163.1 14.081 163.289 14.245 163.518 14.3295C163.751 14.4091 163.998 14.4489 164.256 14.4489C164.45 14.4489 164.609 14.4389 164.733 14.419C164.858 14.3942 164.957 14.3743 165.032 14.3594L165.39 15.9403C165.27 15.9851 165.104 16.0298 164.89 16.0746C164.676 16.1243 164.405 16.1491 164.077 16.1491C163.58 16.1491 163.093 16.0423 162.615 15.8285C162.143 15.6147 161.75 15.2891 161.437 14.8516C161.129 14.4141 160.975 13.8622 160.975 13.196V1.80114ZM172.129 4.54545V6.03693H165.954V4.54545H172.129ZM167.804 16V2.96449C167.804 2.30824 167.958 1.76136 168.266 1.32386C168.574 0.886363 168.975 0.558238 169.467 0.339488C169.959 0.120738 170.478 0.0113626 171.025 0.0113626C171.458 0.0113626 171.811 0.046164 172.084 0.115767C172.358 0.185369 172.562 0.249999 172.696 0.309658L172.189 1.83097C172.099 1.80114 171.975 1.76385 171.816 1.7191C171.662 1.67436 171.458 1.65199 171.204 1.65199C170.623 1.65199 170.203 1.79865 169.944 2.09197C169.69 2.3853 169.564 2.81534 169.564 3.3821V16H167.804ZM177.977 16.2386C176.943 16.2386 176.036 15.9925 175.255 15.5004C174.48 15.0082 173.873 14.3196 173.436 13.4347C173.003 12.5497 172.787 11.5156 172.787 10.3324C172.787 9.1392 173.003 8.09766 173.436 7.20774C173.873 6.31783 174.48 5.62678 175.255 5.13459C176.036 4.6424 176.943 4.39631 177.977 4.39631C179.011 4.39631 179.916 4.6424 180.692 5.13459C181.472 5.62678 182.079 6.31783 182.511 7.20774C182.949 8.09766 183.168 9.1392 183.168 10.3324C183.168 11.5156 182.949 12.5497 182.511 13.4347C182.079 14.3196 181.472 15.0082 180.692 15.5004C179.916 15.9925 179.011 16.2386 177.977 16.2386ZM177.977 14.6577C178.763 14.6577 179.409 14.4563 179.916 14.0536C180.423 13.6509 180.799 13.1214 181.042 12.4652C181.286 11.8089 181.408 11.098 181.408 10.3324C181.408 9.56676 181.286 8.85334 181.042 8.19212C180.799 7.53089 180.423 6.99645 179.916 6.58878C179.409 6.18111 178.763 5.97727 177.977 5.97727C177.192 5.97727 176.545 6.18111 176.038 6.58878C175.531 6.99645 175.156 7.53089 174.912 8.19212C174.669 8.85334 174.547 9.56676 174.547 10.3324C174.547 11.098 174.669 11.8089 174.912 12.4652C175.156 13.1214 175.531 13.6509 176.038 14.0536C176.545 14.4563 177.192 14.6577 177.977 14.6577ZM185.054 16V4.54545H186.754V6.27557H186.874C187.083 5.70881 187.46 5.24893 188.007 4.89595C188.554 4.54297 189.171 4.36648 189.857 4.36648C189.986 4.36648 190.148 4.36896 190.341 4.37393C190.535 4.37891 190.682 4.38636 190.781 4.39631V6.18608C190.722 6.17116 190.585 6.14879 190.371 6.11896C190.162 6.08416 189.941 6.06676 189.708 6.06676C189.151 6.06676 188.654 6.18359 188.216 6.41726C187.784 6.64595 187.441 6.96413 187.187 7.3718C186.938 7.7745 186.814 8.23437 186.814 8.75142V16H185.054ZM192.068 16V4.54545H193.768V6.33523H193.917C194.156 5.72372 194.541 5.24893 195.073 4.91087C195.605 4.56783 196.244 4.39631 196.99 4.39631C197.745 4.39631 198.374 4.56783 198.876 4.91087C199.383 5.24893 199.779 5.72372 200.062 6.33523H200.181C200.475 5.74361 200.915 5.27379 201.501 4.92578C202.088 4.5728 202.791 4.39631 203.612 4.39631C204.636 4.39631 205.474 4.71697 206.125 5.35831C206.776 5.99467 207.102 6.98651 207.102 8.33381V16H205.342V8.33381C205.342 7.48864 205.111 6.88459 204.648 6.52166C204.186 6.15874 203.641 5.97727 203.015 5.97727C202.21 5.97727 201.586 6.22088 201.143 6.7081C200.701 7.19034 200.48 7.80185 200.48 8.54261V16H198.69V8.15483C198.69 7.50355 198.478 6.97905 198.056 6.58132C197.633 6.17862 197.089 5.97727 196.423 5.97727C195.965 5.97727 195.538 6.09908 195.14 6.34268C194.747 6.58629 194.429 6.92436 194.186 7.35689C193.947 7.78445 193.828 8.27912 193.828 8.84091V16H192.068ZM219.727 4.54545V6.03693H213.552V4.54545H219.727ZM215.401 16V2.96449C215.401 2.30824 215.556 1.76136 215.864 1.32386C216.172 0.886363 216.572 0.558238 217.064 0.339488C217.557 0.120738 218.076 0.0113626 218.623 0.0113626C219.056 0.0113626 219.409 0.046164 219.682 0.115767C219.955 0.185369 220.159 0.249999 220.293 0.309658L219.786 1.83097C219.697 1.80114 219.573 1.76385 219.413 1.7191C219.259 1.67436 219.056 1.65199 218.802 1.65199C218.22 1.65199 217.8 1.79865 217.542 2.09197C217.288 2.3853 217.161 2.81534 217.161 3.3821V16H215.401ZM225.575 16.2386C224.541 16.2386 223.634 15.9925 222.853 15.5004C222.077 15.0082 221.471 14.3196 221.033 13.4347C220.601 12.5497 220.385 11.5156 220.385 10.3324C220.385 9.1392 220.601 8.09766 221.033 7.20774C221.471 6.31783 222.077 5.62678 222.853 5.13459C223.634 4.6424 224.541 4.39631 225.575 4.39631C226.609 4.39631 227.514 4.6424 228.289 5.13459C229.07 5.62678 229.677 6.31783 230.109 7.20774C230.547 8.09766 230.765 9.1392 230.765 10.3324C230.765 11.5156 230.547 12.5497 230.109 13.4347C229.677 14.3196 229.07 15.0082 228.289 15.5004C227.514 15.9925 226.609 16.2386 225.575 16.2386ZM225.575 14.6577C226.36 14.6577 227.007 14.4563 227.514 14.0536C228.021 13.6509 228.396 13.1214 228.64 12.4652C228.884 11.8089 229.005 11.098 229.005 10.3324C229.005 9.56676 228.884 8.85334 228.64 8.19212C228.396 7.53089 228.021 6.99645 227.514 6.58878C227.007 6.18111 226.36 5.97727 225.575 5.97727C224.789 5.97727 224.143 6.18111 223.636 6.58878C223.129 6.99645 222.754 7.53089 222.51 8.19212C222.266 8.85334 222.145 9.56676 222.145 10.3324C222.145 11.098 222.266 11.8089 222.51 12.4652C222.754 13.1214 223.129 13.6509 223.636 14.0536C224.143 14.4563 224.789 14.6577 225.575 14.6577ZM232.652 16V4.54545H234.352V6.27557H234.471C234.68 5.70881 235.058 5.24893 235.605 4.89595C236.152 4.54297 236.768 4.36648 237.454 4.36648C237.584 4.36648 237.745 4.36896 237.939 4.37393C238.133 4.37891 238.28 4.38636 238.379 4.39631V6.18608C238.319 6.17116 238.183 6.14879 237.969 6.11896C237.76 6.08416 237.539 6.06676 237.305 6.06676C236.748 6.06676 236.251 6.18359 235.814 6.41726C235.381 6.64595 235.038 6.96413 234.785 7.3718C234.536 7.7745 234.412 8.23437 234.412 8.75142V16H232.652ZM244.772 16V4.54545H246.472V6.27557H246.591C246.8 5.70881 247.178 5.24893 247.725 4.89595C248.272 4.54297 248.888 4.36648 249.574 4.36648C249.703 4.36648 249.865 4.36896 250.059 4.37393C250.253 4.37891 250.399 4.38636 250.499 4.39631V6.18608C250.439 6.17116 250.302 6.14879 250.089 6.11896C249.88 6.08416 249.659 6.06676 249.425 6.06676C248.868 6.06676 248.371 6.18359 247.933 6.41726C247.501 6.64595 247.158 6.96413 246.904 7.3718C246.656 7.7745 246.531 8.23437 246.531 8.75142V16H244.772ZM259.004 11.3168V4.54545H260.764V16H259.004V14.0611H258.884C258.616 14.6428 258.198 15.1374 257.632 15.5451C257.065 15.9478 256.349 16.1491 255.484 16.1491C254.768 16.1491 254.132 15.9925 253.575 15.6793C253.018 15.3612 252.58 14.8839 252.262 14.2475C251.944 13.6062 251.785 12.7983 251.785 11.8239V4.54545H253.545V11.7045C253.545 12.5398 253.779 13.206 254.246 13.7031C254.718 14.2003 255.32 14.4489 256.051 14.4489C256.488 14.4489 256.933 14.337 257.386 14.1133C257.843 13.8896 258.226 13.5465 258.534 13.0842C258.847 12.6218 259.004 12.0327 259.004 11.3168ZM264.947 9.10938V16H263.187V4.54545H264.887V6.33523H265.037C265.305 5.75355 265.713 5.28622 266.26 4.93324C266.806 4.57528 267.512 4.39631 268.377 4.39631C269.153 4.39631 269.832 4.5554 270.413 4.87358C270.995 5.18679 271.447 5.66406 271.771 6.3054C272.094 6.94176 272.255 7.74716 272.255 8.72159V16H270.495V8.84091C270.495 7.94105 270.262 7.24006 269.794 6.73793C269.327 6.23082 268.686 5.97727 267.87 5.97727C267.309 5.97727 266.806 6.09908 266.364 6.34268C265.926 6.58629 265.581 6.94176 265.327 7.40909C265.074 7.87642 264.947 8.44318 264.947 9.10938ZM276.431 9.10938V16H274.671V4.54545H276.372V6.33523H276.521C276.789 5.75355 277.197 5.28622 277.744 4.93324C278.291 4.57528 278.997 4.39631 279.862 4.39631C280.637 4.39631 281.316 4.5554 281.898 4.87358C282.479 5.18679 282.932 5.66406 283.255 6.3054C283.578 6.94176 283.74 7.74716 283.74 8.72159V16H281.98V8.84091C281.98 7.94105 281.746 7.24006 281.279 6.73793C280.811 6.23082 280.17 5.97727 279.355 5.97727C278.793 5.97727 278.291 6.09908 277.848 6.34268C277.411 6.58629 277.065 6.94176 276.812 7.40909C276.558 7.87642 276.431 8.44318 276.431 9.10938ZM286.156 16V4.54545H287.915V16H286.156ZM287.05 2.63636C286.707 2.63636 286.412 2.51953 286.163 2.28587C285.919 2.0522 285.798 1.77131 285.798 1.44318C285.798 1.11506 285.919 0.834162 286.163 0.600497C286.412 0.366832 286.707 0.25 287.05 0.25C287.393 0.25 287.687 0.366832 287.93 0.600497C288.179 0.834162 288.303 1.11506 288.303 1.44318C288.303 1.77131 288.179 2.0522 287.93 2.28587C287.687 2.51953 287.393 2.63636 287.05 2.63636ZM292.099 9.10938V16H290.339V4.54545H292.039V6.33523H292.188C292.457 5.75355 292.864 5.28622 293.411 4.93324C293.958 4.57528 294.664 4.39631 295.529 4.39631C296.305 4.39631 296.983 4.5554 297.565 4.87358C298.147 5.18679 298.599 5.66406 298.922 6.3054C299.246 6.94176 299.407 7.74716 299.407 8.72159V16H297.647V8.84091C297.647 7.94105 297.413 7.24006 296.946 6.73793C296.479 6.23082 295.837 5.97727 295.022 5.97727C294.46 5.97727 293.958 6.09908 293.516 6.34268C293.078 6.58629 292.733 6.94176 292.479 7.40909C292.226 7.87642 292.099 8.44318 292.099 9.10938ZM306.447 20.5341C305.597 20.5341 304.866 20.4247 304.254 20.206C303.643 19.9922 303.133 19.7088 302.725 19.3558C302.323 19.0078 302.002 18.6349 301.763 18.2372L303.165 17.2528C303.325 17.4616 303.526 17.7003 303.769 17.9688C304.013 18.2422 304.346 18.4783 304.769 18.6772C305.196 18.881 305.756 18.983 306.447 18.983C307.371 18.983 308.135 18.7592 308.736 18.3118C309.338 17.8643 309.638 17.1634 309.638 16.2088V13.8821H309.489C309.36 14.0909 309.176 14.3494 308.937 14.6577C308.704 14.9609 308.366 15.2319 307.923 15.4705C307.486 15.7042 306.894 15.821 306.148 15.821C305.224 15.821 304.393 15.6023 303.658 15.1648C302.927 14.7273 302.348 14.0909 301.92 13.2557C301.497 12.4205 301.286 11.4062 301.286 10.2131C301.286 9.03977 301.492 8.01811 301.905 7.14808C302.318 6.27308 302.892 5.59695 303.628 5.11967C304.364 4.63743 305.214 4.39631 306.178 4.39631C306.924 4.39631 307.516 4.5206 307.953 4.76918C308.396 5.01278 308.734 5.29119 308.967 5.6044C309.206 5.91264 309.39 6.16619 309.519 6.36506H309.698V4.54545H311.398V16.3281C311.398 17.3125 311.175 18.1129 310.727 18.7294C310.285 19.3509 309.688 19.8058 308.937 20.0941C308.192 20.3874 307.361 20.5341 306.447 20.5341ZM306.387 14.2401C307.093 14.2401 307.69 14.0785 308.177 13.7553C308.664 13.4322 309.034 12.9673 309.288 12.3608C309.542 11.7543 309.668 11.0284 309.668 10.1832C309.668 9.35795 309.544 8.62962 309.295 7.99822C309.047 7.36683 308.679 6.87216 308.192 6.5142C307.704 6.15625 307.103 5.97727 306.387 5.97727C305.641 5.97727 305.02 6.16619 304.523 6.54403C304.03 6.92187 303.66 7.42898 303.412 8.06534C303.168 8.7017 303.046 9.40767 303.046 10.1832C303.046 10.9787 303.17 11.6822 303.419 12.2937C303.673 12.9002 304.045 13.3775 304.538 13.7255C305.035 14.0685 305.651 14.2401 306.387 14.2401ZM3.98153 46.2685C3.25568 46.2685 2.59695 46.1317 2.00533 45.8583C1.41371 45.5799 0.943892 45.1797 0.595881 44.6577C0.247869 44.1307 0.0738637 43.4943 0.0738637 42.7486C0.0738637 42.0923 0.203125 41.5604 0.461648 41.1527C0.720171 40.7401 1.0657 40.4169 1.49822 40.1832C1.93075 39.9496 2.40803 39.7756 2.93004 39.6612C3.45703 39.5419 3.98651 39.4474 4.51847 39.3778C5.21449 39.2884 5.77876 39.2212 6.21129 39.1765C6.64879 39.1268 6.96697 39.0447 7.16584 38.9304C7.36967 38.8161 7.47159 38.6172 7.47159 38.3338V38.2741C7.47159 37.5384 7.27024 36.9666 6.86754 36.5589C6.46982 36.1513 5.86577 35.9474 5.0554 35.9474C4.2152 35.9474 3.55646 36.1314 3.07919 36.4993C2.60192 36.8672 2.26634 37.2599 2.07244 37.6776L0.401989 37.081C0.700284 36.3849 1.09801 35.843 1.59517 35.4553C2.0973 35.0625 2.64418 34.7891 3.2358 34.6349C3.83239 34.4759 4.41903 34.3963 4.99574 34.3963C5.36364 34.3963 5.78622 34.4411 6.26349 34.5305C6.74574 34.6151 7.21058 34.7915 7.65803 35.06C8.11044 35.3285 8.4858 35.7337 8.78409 36.2756C9.08239 36.8175 9.23153 37.5433 9.23153 38.4531V46H7.47159V44.4489H7.3821C7.26278 44.6974 7.06392 44.9634 6.78551 45.2468C6.5071 45.5302 6.13672 45.7713 5.67436 45.9702C5.212 46.169 4.64773 46.2685 3.98153 46.2685ZM4.25 44.6875C4.94602 44.6875 5.53267 44.5508 6.00994 44.2773C6.49219 44.0039 6.85511 43.6509 7.09872 43.2184C7.3473 42.7859 7.47159 42.331 7.47159 41.8537V40.2429C7.39702 40.3324 7.23295 40.4144 6.9794 40.489C6.73082 40.5586 6.44247 40.6207 6.11435 40.6754C5.79119 40.7251 5.4755 40.7699 5.16726 40.8097C4.86399 40.8445 4.6179 40.8743 4.42898 40.8991C3.97159 40.9588 3.54403 41.0558 3.14631 41.19C2.75355 41.3192 2.43537 41.5156 2.19176 41.7791C1.95313 42.0376 1.83381 42.3906 1.83381 42.8381C1.83381 43.4496 2.06001 43.9119 2.51243 44.2251C2.96982 44.5334 3.54901 44.6875 4.25 44.6875ZM13.4037 39.1094V46H11.6438V34.5455H13.3441V36.3352H13.4932C13.7617 35.7536 14.1694 35.2862 14.7162 34.9332C15.2631 34.5753 15.9691 34.3963 16.8341 34.3963C17.6097 34.3963 18.2883 34.5554 18.87 34.8736C19.4517 35.1868 19.9041 35.6641 20.2273 36.3054C20.5504 36.9418 20.712 37.7472 20.712 38.7216V46H18.952V38.8409C18.952 37.9411 18.7184 37.2401 18.251 36.7379C17.7837 36.2308 17.1424 35.9773 16.327 35.9773C15.7653 35.9773 15.2631 36.0991 14.8206 36.3427C14.3831 36.5863 14.0376 36.9418 13.7841 37.4091C13.5305 37.8764 13.4037 38.4432 13.4037 39.1094ZM28.2342 46V34.5455H29.9942V46H28.2342ZM29.1291 32.6364C28.7861 32.6364 28.4903 32.5195 28.2417 32.2859C27.9981 32.0522 27.8763 31.7713 27.8763 31.4432C27.8763 31.1151 27.9981 30.8342 28.2417 30.6005C28.4903 30.3668 28.7861 30.25 29.1291 30.25C29.4722 30.25 29.7655 30.3668 30.0091 30.6005C30.2577 30.8342 30.382 31.1151 30.382 31.4432C30.382 31.7713 30.2577 32.0522 30.0091 32.2859C29.7655 32.5195 29.4722 32.6364 29.1291 32.6364ZM34.1776 39.1094V46H32.4176V34.5455H34.1179V36.3352H34.2671C34.5355 35.7536 34.9432 35.2862 35.4901 34.9332C36.0369 34.5753 36.7429 34.3963 37.608 34.3963C38.3835 34.3963 39.0622 34.5554 39.6438 34.8736C40.2255 35.1868 40.6779 35.6641 41.0011 36.3054C41.3242 36.9418 41.4858 37.7472 41.4858 38.7216V46H39.7259V38.8409C39.7259 37.9411 39.4922 37.2401 39.0249 36.7379C38.5575 36.2308 37.9162 35.9773 37.1009 35.9773C36.5391 35.9773 36.0369 36.0991 35.5945 36.3427C35.157 36.5863 34.8115 36.9418 34.5579 37.4091C34.3043 37.8764 34.1776 38.4432 34.1776 39.1094ZM48.8833 34.5455V36.0369H42.9473V34.5455H48.8833ZM44.6774 31.8011H46.4373V42.7188C46.4373 43.2159 46.5094 43.5888 46.6536 43.8374C46.8027 44.081 46.9917 44.245 47.2203 44.3295C47.454 44.4091 47.7001 44.4489 47.9586 44.4489C48.1525 44.4489 48.3116 44.4389 48.4359 44.419C48.5602 44.3942 48.6596 44.3743 48.7342 44.3594L49.0922 45.9403C48.9728 45.9851 48.8063 46.0298 48.5925 46.0746C48.3787 46.1243 48.1078 46.1491 47.7797 46.1491C47.2825 46.1491 46.7953 46.0423 46.318 45.8285C45.8457 45.6147 45.4529 45.2891 45.1397 44.8516C44.8315 44.4141 44.6774 43.8622 44.6774 43.196V31.8011ZM55.4102 46.2386C54.3065 46.2386 53.3545 45.995 52.554 45.5078C51.7586 45.0156 51.1446 44.3295 50.7121 43.4496C50.2845 42.5646 50.0707 41.5355 50.0707 40.3622C50.0707 39.1889 50.2845 38.1548 50.7121 37.2599C51.1446 36.3601 51.7462 35.6591 52.5168 35.157C53.2923 34.6499 54.1972 34.3963 55.2313 34.3963C55.8278 34.3963 56.417 34.4957 56.9987 34.6946C57.5803 34.8935 58.1098 35.2166 58.5871 35.6641C59.0643 36.1065 59.4447 36.6932 59.7281 37.424C60.0114 38.1548 60.1531 39.0547 60.1531 40.1236V40.8693H51.3236V39.348H58.3634C58.3634 38.7017 58.2341 38.125 57.9756 37.6179C57.722 37.1108 57.3591 36.7106 56.8868 36.4173C56.4195 36.1239 55.8676 35.9773 55.2313 35.9773C54.5303 35.9773 53.9237 36.1513 53.4116 36.4993C52.9045 36.8423 52.5143 37.2898 52.2408 37.8416C51.9674 38.3935 51.8307 38.9851 51.8307 39.6165V40.6307C51.8307 41.4957 51.9798 42.229 52.2781 42.8306C52.5814 43.4272 53.0015 43.8821 53.5384 44.1953C54.0754 44.5036 54.6993 44.6577 55.4102 44.6577C55.8726 44.6577 56.2902 44.593 56.6631 44.4638C57.0409 44.3295 57.3665 44.1307 57.64 43.8672C57.9134 43.5987 58.1247 43.2656 58.2739 42.8679L59.9741 43.3452C59.7952 43.9219 59.4944 44.429 59.0718 44.8665C58.6492 45.299 58.1272 45.6371 57.5058 45.8807C56.8843 46.1193 56.1858 46.2386 55.4102 46.2386ZM62.0303 46V34.5455H63.7306V36.2756H63.8499C64.0587 35.7088 64.4366 35.2489 64.9835 34.896C65.5303 34.543 66.1468 34.3665 66.8329 34.3665C66.9621 34.3665 67.1237 34.369 67.3176 34.3739C67.5115 34.3789 67.6582 34.3864 67.7576 34.3963V36.1861C67.6979 36.1712 67.5612 36.1488 67.3474 36.119C67.1386 36.0842 66.9174 36.0668 66.6837 36.0668C66.1269 36.0668 65.6298 36.1836 65.1923 36.4173C64.7597 36.646 64.4167 36.9641 64.1631 37.3718C63.9146 37.7745 63.7903 38.2344 63.7903 38.7514V46H62.0303ZM70.8037 39.1094V46H69.0438V34.5455H70.7441V36.3352H70.8932C71.1617 35.7536 71.5694 35.2862 72.1162 34.9332C72.6631 34.5753 73.3691 34.3963 74.2341 34.3963C75.0097 34.3963 75.6883 34.5554 76.27 34.8736C76.8517 35.1868 77.3041 35.6641 77.6273 36.3054C77.9504 36.9418 78.112 37.7472 78.112 38.7216V46H76.352V38.8409C76.352 37.9411 76.1184 37.2401 75.651 36.7379C75.1837 36.2308 74.5424 35.9773 73.727 35.9773C73.1653 35.9773 72.6631 36.0991 72.2206 36.3427C71.7831 36.5863 71.4376 36.9418 71.1841 37.4091C70.9305 37.8764 70.8037 38.4432 70.8037 39.1094ZM85.3305 46.2386C84.2268 46.2386 83.2748 45.995 82.4744 45.5078C81.6789 45.0156 81.0649 44.3295 80.6324 43.4496C80.2048 42.5646 79.9911 41.5355 79.9911 40.3622C79.9911 39.1889 80.2048 38.1548 80.6324 37.2599C81.0649 36.3601 81.6665 35.6591 82.4371 35.157C83.2126 34.6499 84.1175 34.3963 85.1516 34.3963C85.7482 34.3963 86.3373 34.4957 86.919 34.6946C87.5006 34.8935 88.0301 35.2166 88.5074 35.6641C88.9847 36.1065 89.365 36.6932 89.6484 37.424C89.9318 38.1548 90.0734 39.0547 90.0734 40.1236V40.8693H81.2439V39.348H88.2837C88.2837 38.7017 88.1544 38.125 87.8959 37.6179C87.6423 37.1108 87.2794 36.7106 86.8071 36.4173C86.3398 36.1239 85.7879 35.9773 85.1516 35.9773C84.4506 35.9773 83.844 36.1513 83.332 36.4993C82.8249 36.8423 82.4346 37.2898 82.1612 37.8416C81.8877 38.3935 81.751 38.9851 81.751 39.6165V40.6307C81.751 41.4957 81.9001 42.229 82.1984 42.8306C82.5017 43.4272 82.9218 43.8821 83.4587 44.1953C83.9957 44.5036 84.6196 44.6577 85.3305 44.6577C85.7929 44.6577 86.2105 44.593 86.5834 44.4638C86.9612 44.3295 87.2869 44.1307 87.5603 43.8672C87.8337 43.5987 88.045 43.2656 88.1942 42.8679L89.8945 43.3452C89.7155 43.9219 89.4147 44.429 88.9921 44.8665C88.5695 45.299 88.0475 45.6371 87.4261 45.8807C86.8046 46.1193 86.1061 46.2386 85.3305 46.2386ZM96.9322 34.5455V36.0369H90.9961V34.5455H96.9322ZM92.7262 31.8011H94.4862V42.7188C94.4862 43.2159 94.5582 43.5888 94.7024 43.8374C94.8516 44.081 95.0405 44.245 95.2692 44.3295C95.5028 44.4091 95.7489 44.4489 96.0075 44.4489C96.2013 44.4489 96.3604 44.4389 96.4847 44.419C96.609 44.3942 96.7085 44.3743 96.783 44.3594L97.141 45.9403C97.0217 45.9851 96.8551 46.0298 96.6413 46.0746C96.4276 46.1243 96.1566 46.1491 95.8285 46.1491C95.3313 46.1491 94.8441 46.0423 94.3668 45.8285C93.8945 45.6147 93.5018 45.2891 93.1886 44.8516C92.8803 44.4141 92.7262 43.8622 92.7262 43.196V31.8011ZM104.124 46V30.7273H105.884V36.3651H106.034C106.163 36.1662 106.342 35.9126 106.57 35.6044C106.804 35.2912 107.137 35.0128 107.57 34.7692C108.007 34.5206 108.599 34.3963 109.345 34.3963C110.309 34.3963 111.159 34.6374 111.895 35.1197C112.631 35.6019 113.205 36.2855 113.618 37.1705C114.03 38.0554 114.237 39.0994 114.237 40.3026C114.237 41.5156 114.03 42.5671 113.618 43.457C113.205 44.342 112.633 45.0281 111.902 45.5153C111.172 45.9975 110.329 46.2386 109.374 46.2386C108.639 46.2386 108.05 46.1168 107.607 45.8732C107.165 45.6246 106.824 45.3437 106.585 45.0305C106.347 44.7124 106.163 44.4489 106.034 44.2401H105.825V46H104.124ZM105.855 40.2727C105.855 41.1378 105.981 41.9009 106.235 42.5621C106.488 43.2184 106.859 43.733 107.346 44.1058C107.833 44.4737 108.43 44.6577 109.136 44.6577C109.872 44.6577 110.486 44.4638 110.978 44.076C111.475 43.6832 111.848 43.1562 112.096 42.495C112.35 41.8288 112.477 41.0881 112.477 40.2727C112.477 39.4673 112.352 38.7415 112.104 38.0952C111.86 37.4439 111.49 36.9293 110.993 36.5515C110.5 36.1687 109.882 35.9773 109.136 35.9773C108.42 35.9773 107.818 36.1587 107.331 36.5217C106.844 36.8796 106.476 37.3817 106.227 38.0281C105.979 38.6694 105.855 39.4176 105.855 40.2727ZM123.348 41.3168V34.5455H125.107V46H123.348V44.0611H123.228C122.96 44.6428 122.542 45.1374 121.975 45.5451C121.409 45.9478 120.693 46.1491 119.828 46.1491C119.112 46.1491 118.475 45.9925 117.919 45.6793C117.362 45.3612 116.924 44.8839 116.606 44.2475C116.288 43.6062 116.129 42.7983 116.129 41.8239V34.5455H117.889V41.7045C117.889 42.5398 118.122 43.206 118.59 43.7031C119.062 44.2003 119.664 44.4489 120.394 44.4489C120.832 44.4489 121.277 44.337 121.729 44.1133C122.187 43.8896 122.569 43.5465 122.878 43.0842C123.191 42.6218 123.348 42.0327 123.348 41.3168ZM135.645 37.1108L134.064 37.5582C133.964 37.2947 133.817 37.0387 133.624 36.7901C133.435 36.5366 133.176 36.3278 132.848 36.1637C132.52 35.9996 132.1 35.9176 131.588 35.9176C130.887 35.9176 130.303 36.0792 129.835 36.4023C129.373 36.7205 129.142 37.1257 129.142 37.6179C129.142 38.0554 129.301 38.4009 129.619 38.6545C129.937 38.908 130.434 39.1193 131.11 39.2884L132.811 39.706C133.835 39.9545 134.598 40.3349 135.1 40.8469C135.602 41.354 135.853 42.0078 135.853 42.8082C135.853 43.4645 135.664 44.0511 135.287 44.5682C134.914 45.0852 134.392 45.4929 133.721 45.7912C133.049 46.0895 132.269 46.2386 131.379 46.2386C130.211 46.2386 129.244 45.9851 128.478 45.478C127.712 44.9709 127.228 44.2301 127.024 43.2557L128.694 42.8381C128.853 43.4545 129.154 43.9169 129.597 44.2251C130.044 44.5334 130.628 44.6875 131.349 44.6875C132.169 44.6875 132.821 44.5135 133.303 44.1655C133.79 43.8125 134.034 43.3899 134.034 42.8977C134.034 42.5 133.895 42.1669 133.616 41.8984C133.338 41.625 132.91 41.4212 132.333 41.2869L130.424 40.8395C129.375 40.5909 128.605 40.2056 128.113 39.6836C127.625 39.1566 127.382 38.4979 127.382 37.7074C127.382 37.0611 127.563 36.4893 127.926 35.9922C128.294 35.495 128.794 35.1048 129.425 34.8214C130.061 34.538 130.782 34.3963 131.588 34.3963C132.721 34.3963 133.611 34.6449 134.257 35.142C134.909 35.6392 135.371 36.2955 135.645 37.1108ZM137.703 46V34.5455H139.463V46H137.703ZM138.597 32.6364C138.254 32.6364 137.959 32.5195 137.71 32.2859C137.466 32.0522 137.345 31.7713 137.345 31.4432C137.345 31.1151 137.466 30.8342 137.71 30.6005C137.959 30.3668 138.254 30.25 138.597 30.25C138.941 30.25 139.234 30.3668 139.477 30.6005C139.726 30.8342 139.85 31.1151 139.85 31.4432C139.85 31.7713 139.726 32.0522 139.477 32.2859C139.234 32.5195 138.941 32.6364 138.597 32.6364ZM143.646 39.1094V46H141.886V34.5455H143.586V36.3352H143.735C144.004 35.7536 144.412 35.2862 144.958 34.9332C145.505 34.5753 146.211 34.3963 147.076 34.3963C147.852 34.3963 148.531 34.5554 149.112 34.8736C149.694 35.1868 150.146 35.6641 150.469 36.3054C150.793 36.9418 150.954 37.7472 150.954 38.7216V46H149.194V38.8409C149.194 37.9411 148.961 37.2401 148.493 36.7379C148.026 36.2308 147.385 35.9773 146.569 35.9773C146.007 35.9773 145.505 36.0991 145.063 36.3427C144.625 36.5863 144.28 36.9418 144.026 37.4091C143.773 37.8764 143.646 38.4432 143.646 39.1094ZM158.173 46.2386C157.069 46.2386 156.117 45.995 155.317 45.5078C154.521 45.0156 153.907 44.3295 153.475 43.4496C153.047 42.5646 152.833 41.5355 152.833 40.3622C152.833 39.1889 153.047 38.1548 153.475 37.2599C153.907 36.3601 154.509 35.6591 155.279 35.157C156.055 34.6499 156.96 34.3963 157.994 34.3963C158.59 34.3963 159.179 34.4957 159.761 34.6946C160.343 34.8935 160.872 35.2166 161.35 35.6641C161.827 36.1065 162.207 36.6932 162.491 37.424C162.774 38.1548 162.916 39.0547 162.916 40.1236V40.8693H154.086V39.348H161.126C161.126 38.7017 160.997 38.125 160.738 37.6179C160.485 37.1108 160.122 36.7106 159.649 36.4173C159.182 36.1239 158.63 35.9773 157.994 35.9773C157.293 35.9773 156.686 36.1513 156.174 36.4993C155.667 36.8423 155.277 37.2898 155.003 37.8416C154.73 38.3935 154.593 38.9851 154.593 39.6165V40.6307C154.593 41.4957 154.742 42.229 155.041 42.8306C155.344 43.4272 155.764 43.8821 156.301 44.1953C156.838 44.5036 157.462 44.6577 158.173 44.6577C158.635 44.6577 159.053 44.593 159.426 44.4638C159.803 44.3295 160.129 44.1307 160.402 43.8672C160.676 43.5987 160.887 43.2656 161.036 42.8679L162.737 43.3452C162.558 43.9219 162.257 44.429 161.834 44.8665C161.412 45.299 160.89 45.6371 160.268 45.8807C159.647 46.1193 158.948 46.2386 158.173 46.2386ZM172.906 37.1108L171.326 37.5582C171.226 37.2947 171.079 37.0387 170.886 36.7901C170.697 36.5366 170.438 36.3278 170.11 36.1637C169.782 35.9996 169.362 35.9176 168.85 35.9176C168.149 35.9176 167.564 36.0792 167.097 36.4023C166.635 36.7205 166.404 37.1257 166.404 37.6179C166.404 38.0554 166.563 38.4009 166.881 38.6545C167.199 38.908 167.696 39.1193 168.372 39.2884L170.073 39.706C171.097 39.9545 171.86 40.3349 172.362 40.8469C172.864 41.354 173.115 42.0078 173.115 42.8082C173.115 43.4645 172.926 44.0511 172.549 44.5682C172.176 45.0852 171.654 45.4929 170.982 45.7912C170.311 46.0895 169.531 46.2386 168.641 46.2386C167.473 46.2386 166.506 45.9851 165.74 45.478C164.974 44.9709 164.49 44.2301 164.286 43.2557L165.956 42.8381C166.115 43.4545 166.416 43.9169 166.859 44.2251C167.306 44.5334 167.89 44.6875 168.611 44.6875C169.431 44.6875 170.083 44.5135 170.565 44.1655C171.052 43.8125 171.296 43.3899 171.296 42.8977C171.296 42.5 171.156 42.1669 170.878 41.8984C170.6 41.625 170.172 41.4212 169.595 41.2869L167.686 40.8395C166.637 40.5909 165.867 40.2056 165.375 39.6836C164.887 39.1566 164.644 38.4979 164.644 37.7074C164.644 37.0611 164.825 36.4893 165.188 35.9922C165.556 35.495 166.056 35.1048 166.687 34.8214C167.323 34.538 168.044 34.3963 168.85 34.3963C169.983 34.3963 170.873 34.6449 171.519 35.142C172.171 35.6392 172.633 36.2955 172.906 37.1108ZM183.078 37.1108L181.497 37.5582C181.398 37.2947 181.251 37.0387 181.057 36.7901C180.868 36.5366 180.61 36.3278 180.282 36.1637C179.954 35.9996 179.533 35.9176 179.021 35.9176C178.32 35.9176 177.736 36.0792 177.269 36.4023C176.806 36.7205 176.575 37.1257 176.575 37.6179C176.575 38.0554 176.734 38.4009 177.053 38.6545C177.371 38.908 177.868 39.1193 178.544 39.2884L180.244 39.706C181.268 39.9545 182.032 40.3349 182.534 40.8469C183.036 41.354 183.287 42.0078 183.287 42.8082C183.287 43.4645 183.098 44.0511 182.72 44.5682C182.347 45.0852 181.825 45.4929 181.154 45.7912C180.483 46.0895 179.702 46.2386 178.813 46.2386C177.644 46.2386 176.677 45.9851 175.912 45.478C175.146 44.9709 174.661 44.2301 174.457 43.2557L176.128 42.8381C176.287 43.4545 176.588 43.9169 177.03 44.2251C177.478 44.5334 178.062 44.6875 178.783 44.6875C179.603 44.6875 180.254 44.5135 180.737 44.1655C181.224 43.8125 181.467 43.3899 181.467 42.8977C181.467 42.5 181.328 42.1669 181.05 41.8984C180.771 41.625 180.344 41.4212 179.767 41.2869L177.858 40.8395C176.809 40.5909 176.038 40.2056 175.546 39.6836C175.059 39.1566 174.815 38.4979 174.815 37.7074C174.815 37.0611 174.997 36.4893 175.36 35.9922C175.728 35.495 176.227 35.1048 176.859 34.8214C177.495 34.538 178.216 34.3963 179.021 34.3963C180.155 34.3963 181.045 34.6449 181.691 35.142C182.342 35.6392 182.805 36.2955 183.078 37.1108ZM186.419 46.1193C186.051 46.1193 185.735 45.9876 185.472 45.7241C185.208 45.4606 185.077 45.1449 185.077 44.777C185.077 44.4091 185.208 44.0934 185.472 43.8299C185.735 43.5664 186.051 43.4347 186.419 43.4347C186.787 43.4347 187.102 43.5664 187.366 43.8299C187.629 44.0934 187.761 44.4091 187.761 44.777C187.761 45.0206 187.699 45.2443 187.575 45.4482C187.455 45.652 187.294 45.8161 187.09 45.9403C186.891 46.0597 186.667 46.1193 186.419 46.1193Z" fill="black" fill-opacity="0.5"/>
</svg>
