<svg width="86" height="32" viewBox="0 0 86 32" fill="none" xmlns="http://www.w3.org/2000/svg">
<path fill-rule="evenodd" clip-rule="evenodd" d="M10.1969 31.8521C7.66919 31.748 5.60054 31.03 3.98398 29.6968C3.676 29.4421 2.93919 28.6785 2.69281 28.3564C2.03735 27.5006 1.58992 26.6678 1.29357 25.7438C0.377787 22.8995 0.849625 19.167 2.64168 15.0708C4.17457 11.5639 6.54073 8.08567 10.6699 3.26844C11.2765 2.55958 13.0872 0.486511 13.1011 0.486511C13.1035 0.486511 13.0058 0.66395 12.8815 0.880008C11.8088 2.746 10.8895 4.94395 10.3887 6.84677C9.58444 9.90003 9.68206 12.5202 10.6734 14.5519C11.3567 15.9518 12.5282 17.1641 13.8461 17.8342C16.153 19.0072 19.5302 19.1041 23.6536 18.1181C23.9371 18.0499 38.0074 14.1738 54.9204 9.50419C71.8345 4.83435 85.6747 1.01657 85.6758 1.01971C85.6805 1.02376 46.3831 18.4753 25.9814 27.529C22.7506 28.9624 21.8882 29.3244 20.3693 29.8778C16.4865 31.2928 13.0082 31.9681 10.1969 31.8521Z" fill="black" fill-opacity="0.3"/>
</svg>
